# xmcd
#
# Track frame offsets:
#	150
#	11247
#	28978
#	44693
#	78104
#	96532
#	118924
#	133407
#	158873
#	178360
#
# Disc length: 2602 seconds
#
# Revision: 11
# Processed by: cddbd v1.5.2PL0 Copyright (c) Steve Scherf et al.
# Submitted via: Jack! The Knife 20 Magnifico
#
DISCID=960a280a
DTITLE=Led Zeppelin - Led Zeppelin III
DYEAR=1970
DGENRE=Hard Rock
TTITLE0=Immigrant Song
TTITLE1=Friends
TTITLE2=Celebration Day
TTITLE3=Since I've Been Loving You
TTITLE4=Out Of The Tiles
TTITLE5=Gallows Pole
TTITLE6=Tangerine
TTITLE7=That's The Way
TTITLE8=Bron-Y-Aur Stomp
TTITLE9=Hats Off To (Roy) Harper
EXTD=Jimmy Page
EXTT0=Page, Plant
EXTT1=Page, Plant
EXTT2=Jones, Page, Plant
EXTT3=Jones, Page, Plant
EXTT4=Bonham, Page, Plant
EXTT5=Page, Plant
EXTT6=Jimmy Page
EXTT7=Page, Plant
EXTT8=Jones, Page, Plant
EXTT9=Charles Obscure
PLAYORDER=
